<svg width="48" height="48" viewBox="0 0 48 48" fill="none" xmlns="http://www.w3.org/2000/svg">
<g clip-path="url(#clip0_3_1436)">
<path d="M14 8V4H34V8H44V12H40V42C40 42.5304 39.7893 43.0391 39.4142 43.4142C39.0391 43.7893 38.5304 44 38 44H10C9.46957 44 8.96086 43.7893 8.58579 43.4142C8.21071 43.0391 8 42.5304 8 42V12H4V8H14ZM12 12V40H36V12H12ZM18 18H22V34H18V18ZM26 18H30V34H26V18Z" fill="#2F2F2F"/>
</g>
<defs>
<clipPath id="clip0_3_1436">
<rect width="48" height="48" fill="white"/>
</clipPath>
</defs>
</svg>
