<svg width="19" height="18" viewBox="0 0 19 18" fill="none" xmlns="http://www.w3.org/2000/svg">
<path d="M9.375 9.75C9.78921 9.75 10.125 9.41421 10.125 9C10.125 8.58579 9.78921 8.25 9.375 8.25C8.96079 8.25 8.625 8.58579 8.625 9C8.625 9.41421 8.96079 9.75 9.375 9.75Z" stroke="#666666" stroke-width="2" stroke-linecap="round" stroke-linejoin="round"/>
<path d="M9.375 4.5C9.78921 4.5 10.125 4.16421 10.125 3.75C10.125 3.33579 9.78921 3 9.375 3C8.96079 3 8.625 3.33579 8.625 3.75C8.625 4.16421 8.96079 4.5 9.375 4.5Z" stroke="#666666" stroke-width="2" stroke-linecap="round" stroke-linejoin="round"/>
<path d="M9.375 15C9.78921 15 10.125 14.6642 10.125 14.25C10.125 13.8358 9.78921 13.5 9.375 13.5C8.96079 13.5 8.625 13.8358 8.625 14.25C8.625 14.6642 8.96079 15 9.375 15Z" stroke="#666666" stroke-width="2" stroke-linecap="round" stroke-linejoin="round"/>
</svg>
